<svg width="350" height="350" viewBox="0 0 350 350" fill="none" xmlns="http://www.w3.org/2000/svg">
<rect width="350" height="350" rx="50" fill="#0B0E11"/>
<path d="M86.2 76.4V111H81.65V85.2L70.15 111H66.95L55.4 85.15V111H50.85V76.4H55.75L68.55 105L81.35 76.4H86.2ZM105.866 111.45C103.3 111.45 100.966 110.867 98.8664 109.7C96.7997 108.533 95.1664 106.883 93.9664 104.75C92.7997 102.583 92.2164 100.083 92.2164 97.25C92.2164 94.45 92.8164 91.9833 94.0164 89.85C95.2497 87.6833 96.9164 86.0333 99.0164 84.9C101.116 83.7333 103.466 83.15 106.066 83.15C108.666 83.15 111.016 83.7333 113.116 84.9C115.216 86.0333 116.866 87.6667 118.066 89.8C119.3 91.9333 119.916 94.4167 119.916 97.25C119.916 100.083 119.283 102.583 118.016 104.75C116.783 106.883 115.1 108.533 112.966 109.7C110.833 110.867 108.466 111.45 105.866 111.45ZM105.866 107.45C107.5 107.45 109.033 107.067 110.466 106.3C111.9 105.533 113.05 104.383 113.916 102.85C114.816 101.317 115.266 99.45 115.266 97.25C115.266 95.05 114.833 93.1833 113.966 91.65C113.1 90.1167 111.966 88.9833 110.566 88.25C109.166 87.4833 107.65 87.1 106.016 87.1C104.35 87.1 102.816 87.4833 101.416 88.25C100.05 88.9833 98.9497 90.1167 98.1164 91.65C97.2831 93.1833 96.8664 95.05 96.8664 97.25C96.8664 99.4833 97.2664 101.367 98.0664 102.9C98.8997 104.433 99.9997 105.583 101.366 106.35C102.733 107.083 104.233 107.45 105.866 107.45ZM139.249 83.1C142.582 83.1 145.282 84.1167 147.349 86.15C149.415 88.15 150.449 91.05 150.449 94.85V111H145.949V95.5C145.949 92.7667 145.265 90.6833 143.899 89.25C142.532 87.7833 140.665 87.05 138.299 87.05C135.899 87.05 133.982 87.8 132.549 89.3C131.149 90.8 130.449 92.9833 130.449 95.85V111H125.899V83.6H130.449V87.5C131.349 86.1 132.565 85.0167 134.099 84.25C135.665 83.4833 137.382 83.1 139.249 83.1Z" fill="#49B583" fill-opacity="0.87"/>
<path d="M65.3668 129.45V195.6C65.3668 204.9 67.6168 211.8 72.1168 216.3C76.7168 220.8 83.0668 223.05 91.1668 223.05C99.1668 223.05 105.417 220.8 109.917 216.3C114.517 211.8 116.817 204.9 116.817 195.6V129.45H130.467V195.45C130.467 204.15 128.717 211.5 125.217 217.5C121.717 223.4 116.967 227.8 110.967 230.7C105.067 233.6 98.4168 235.05 91.0168 235.05C83.6168 235.05 76.9168 233.6 70.9168 230.7C65.0168 227.8 60.3168 223.4 56.8168 217.5C53.4168 211.5 51.7168 204.15 51.7168 195.45V129.45H65.3668ZM212.338 129.45V140.55H166.888V175.8H203.788V186.9H166.888V234H153.238V129.45H212.338ZM283.873 234L258.973 191.25H242.473V234H228.823V129.45H262.573C270.473 129.45 277.123 130.8 282.523 133.5C288.023 136.2 292.123 139.85 294.823 144.45C297.523 149.05 298.873 154.3 298.873 160.2C298.873 167.4 296.773 173.75 292.573 179.25C288.473 184.75 282.273 188.4 273.973 190.2L300.223 234H283.873ZM242.473 180.3H262.573C269.973 180.3 275.523 178.5 279.223 174.9C282.923 171.2 284.773 166.3 284.773 160.2C284.773 154 282.923 149.2 279.223 145.8C275.623 142.4 270.073 140.7 262.573 140.7H242.473V180.3Z" fill="#49B583" fill-opacity="0.87"/>
</svg>
